<svg width="64" height="64" viewBox="0 0 64 64" fill="none" xmlns="http://www.w3.org/2000/svg">
<rect x="0.5" y="0.5" width="63" height="63" rx="31.5" stroke="#212121"/>
<g clip-path="url(#clip0_759_56)">
<path d="M39.7744 23.1951C39.774 23.1951 39.7736 23.1951 39.7731 23.1951L32.8622 23.2257C32.3445 23.2279 31.9265 23.6495 31.9288 24.1673C31.9311 24.6851 32.3526 25.103 32.8704 25.1007L37.5103 25.0801L23.4994 39.1473C23.134 39.5142 23.1352 40.1078 23.5021 40.4731C23.8689 40.8385 24.4625 40.8373 24.8279 40.4705L38.8388 26.4033L38.8369 31.0433C38.8367 31.561 39.2563 31.9809 39.774 31.9811C40.2919 31.9813 40.7117 31.5616 40.7119 31.0439L40.7148 24.1329C40.7148 24.1325 40.7147 24.1321 40.7148 24.1317C40.7142 23.6129 40.2915 23.1935 39.7744 23.1951Z" fill="#212121"/>
</g>
<defs>
<clipPath id="clip0_759_56">
<rect width="24" height="24" fill="white" transform="translate(15 32.0049) rotate(-45.1148)"/>
</clipPath>
</defs>
</svg>
