<svg width="64" height="64" viewBox="0 0 64 64" fill="none" xmlns="http://www.w3.org/2000/svg">
<rect x="0.5" y="0.5" width="63" height="63" rx="31.5" stroke="white"/>
<g clip-path="url(#clip0_710_29)">
<path d="M39.7744 23.1905C39.774 23.1905 39.7736 23.1904 39.7731 23.1905L32.8622 23.221C32.3445 23.2233 31.9265 23.6448 31.9288 24.1627C31.9311 24.6804 32.3526 25.0983 32.8704 25.096L37.5103 25.0755L23.4994 39.1427C23.134 39.5095 23.1352 40.1031 23.5021 40.4685C23.8689 40.8339 24.4625 40.8327 24.8279 40.4659L38.8388 26.3987L38.8369 31.0386C38.8367 31.5564 39.2563 31.9763 39.774 31.9764C40.2919 31.9767 40.7117 31.557 40.7119 31.0393L40.7148 24.1283C40.7148 24.1279 40.7147 24.1275 40.7148 24.1271C40.7142 23.6083 40.2915 23.1889 39.7744 23.1905Z" fill="white"/>
</g>
<defs>
<clipPath id="clip0_710_29">
<rect width="24" height="24" fill="white" transform="translate(15 32) rotate(-45.1148)"/>
</clipPath>
</defs>
</svg>
