<svg width="30" height="30" viewBox="0 0 30 30" fill="none" xmlns="http://www.w3.org/2000/svg">
<path d="M15 5C20.5142 5 25 9.48583 25 15C25 20.5142 20.5142 25 15 25C9.48583 25 5 20.5142 5 15C5 9.48583 9.48583 5 15 5ZM18.8508 17.0138C17.9396 16.2054 18.0617 16.3363 19.1592 14.9388C19.8275 14.0871 20.0908 13.3025 20.0279 13.0733C19.9842 12.9133 19.7292 12.9167 19.4571 12.9167C19.185 12.9167 17.9446 12.9262 17.8208 12.9262C17.6971 12.9262 17.7 12.925 17.6096 12.9767C17.5212 13.0271 17.4646 13.1296 17.4646 13.1296C17.4646 13.1296 17.1896 14.06 16.8437 14.6204C16.1158 15.8025 15.7067 15.7125 15.5871 15.6383C15.3104 15.4671 15.3608 14.9512 15.3608 14.5842C15.3608 13.4383 15.4933 13.1121 14.9571 12.9883C14.7796 12.9475 14.6488 12.9204 14.1942 12.9158C13.61 12.9104 13.2712 12.9387 13.0225 13.0496C12.8362 13.1371 12.69 13.2904 12.7775 13.3017C12.8858 13.3158 13.1333 13.4054 13.2629 13.5742C13.4308 13.7925 13.4167 14.2821 13.4167 14.2821C13.4167 14.2821 13.5217 15.4225 13.1996 15.5896C12.9792 15.7046 12.6771 15.6779 12.0275 14.6054C11.695 14.0558 11.4342 13.1942 11.4342 13.1942C11.4342 13.1942 11.3858 13.0783 11.2992 13.0175C11.1946 12.9442 11.0483 12.9167 11.0483 12.9167L9.49458 12.9171C9.49458 12.9171 9.26083 12.9046 9.175 13.0017C9.09917 13.0883 9.16875 13.2308 9.16875 13.2308C9.16875 13.2308 10.3475 16.0579 11.6917 17.4617C12.6417 18.4546 13.5937 18.75 14.4717 18.75H14.9725C15.2421 18.75 15.3612 18.6879 15.3612 18.5487C15.3612 18.1612 15.3583 17.7075 15.6933 17.6071C16.0933 17.4875 16.6625 18.1771 17.2058 18.5329C17.5392 18.7537 17.9292 18.7496 17.9292 18.7496H19.5312C19.5312 18.7496 20.2917 18.68 19.9308 18.1083C19.9017 18.0617 19.7208 17.7858 18.8508 17.0138Z" fill="white"/>
</svg>
