<svg width="32" height="34" viewBox="0 0 32 34" fill="none" xmlns="http://www.w3.org/2000/svg">
<g opacity="0.8" clip-path="url(#clip0_1_3809)">
<path d="M16 33.0238C12.8355 33.0238 9.74207 32.0756 7.11088 30.299C4.4797 28.5225 2.42894 25.9974 1.21793 23.0431C0.00693261 20.0888 -0.309921 16.838 0.307443 13.7017C0.924806 10.5654 2.44866 7.68459 4.6863 5.42347C6.92394 3.16234 9.77486 1.6225 12.8786 0.998657C15.9823 0.374815 19.1993 0.694994 22.1229 1.9187C25.0466 3.14242 27.5454 5.2147 29.3035 7.8735C31.0616 10.5323 32 13.6582 32 16.8559C31.9952 21.1424 30.3079 25.2519 27.3084 28.2829C24.3088 31.314 20.242 33.0189 16 33.0238ZM16 1.61188C13.0163 1.61188 10.0997 2.50592 7.61883 4.18096C5.138 5.85599 3.20443 8.23679 2.06262 11.0223C0.920822 13.8078 0.622075 16.8728 1.20416 19.8299C1.78625 22.7869 3.22302 25.5031 5.3328 27.6351C7.44257 29.767 10.1306 31.2188 13.0569 31.807C15.9833 32.3952 19.0165 32.0933 21.7731 30.9396C24.5296 29.7858 26.8857 27.8319 28.5433 25.325C30.201 22.8182 31.0857 19.8709 31.0857 16.8559C31.0811 12.8144 29.4903 8.93968 26.6621 6.08188C23.834 3.22408 19.9996 1.61652 16 1.61188Z" fill="#313131"/>
<path d="M15.9998 6.49665C15.8851 6.49665 15.7751 6.45062 15.694 6.36867C15.6129 6.28672 15.5674 6.17557 15.5674 6.05968V5.16695C15.5674 5.05106 15.6129 4.93991 15.694 4.85797C15.7751 4.77602 15.8851 4.72998 15.9998 4.72998C16.1145 4.72998 16.2245 4.77602 16.3056 4.85797C16.3867 4.93991 16.4323 5.05106 16.4323 5.16695V6.05968C16.4323 6.17557 16.3867 6.28672 16.3056 6.36867C16.2245 6.45062 16.1145 6.49665 15.9998 6.49665Z" fill="#313131"/>
<path d="M15.9998 29.7379C15.8851 29.7379 15.7751 29.6918 15.694 29.6099C15.6129 29.5279 15.5674 29.4168 15.5674 29.3009V28.4082C15.5674 28.2923 15.6129 28.1811 15.694 28.0992C15.7751 28.0172 15.8851 27.9712 15.9998 27.9712C16.1145 27.9712 16.2245 28.0172 16.3056 28.0992C16.3867 28.1811 16.4323 28.2923 16.4323 28.4082V29.3009C16.4323 29.4168 16.3867 29.5279 16.3056 29.6099C16.2245 29.6918 16.1145 29.7379 15.9998 29.7379Z" fill="#313131"/>
<path d="M23.4323 10.2827C23.3468 10.2827 23.2632 10.257 23.1921 10.209C23.121 10.161 23.0656 10.0928 23.0329 10.0129C23.0002 9.93311 22.9916 9.84526 23.0083 9.76051C23.025 9.67576 23.0662 9.59791 23.1266 9.5368L23.751 8.90537C23.7909 8.86364 23.8386 8.83035 23.8914 8.80745C23.9442 8.78455 24.0009 8.77249 24.0583 8.77199C24.1157 8.77148 24.1727 8.78254 24.2258 8.80451C24.279 8.82648 24.3273 8.85893 24.3679 8.89996C24.4085 8.94099 24.4406 8.98978 24.4623 9.04348C24.4841 9.09718 24.495 9.15472 24.4945 9.21274C24.494 9.27076 24.4821 9.3281 24.4594 9.38141C24.4367 9.43472 24.4038 9.48294 24.3625 9.52325L23.7381 10.1547C23.657 10.2366 23.547 10.2827 23.4323 10.2827Z" fill="#313131"/>
<path d="M7.43234 25.4292C7.34683 25.4292 7.26324 25.4035 7.19214 25.3555C7.12105 25.3075 7.06563 25.2393 7.03291 25.1594C7.00019 25.0796 6.99163 24.9917 7.0083 24.907C7.02498 24.8222 7.06615 24.7444 7.12661 24.6833L7.75104 24.0519C7.8326 23.9723 7.94184 23.9282 8.05522 23.9292C8.1686 23.9302 8.27706 23.9762 8.35724 24.0572C8.43741 24.1382 8.48289 24.2478 8.48388 24.3624C8.48486 24.4769 8.44128 24.5873 8.36251 24.6697L7.73807 25.3012C7.65699 25.3831 7.54702 25.4292 7.43234 25.4292Z" fill="#313131"/>
<path d="M28.3163 17.2929H27.4324C27.3177 17.2929 27.2078 17.2469 27.1267 17.1649C27.0456 17.083 27 16.9718 27 16.8559C27 16.74 27.0456 16.6289 27.1267 16.5469C27.2078 16.465 27.3177 16.4189 27.4324 16.4189H28.3163C28.431 16.4189 28.541 16.465 28.6221 16.5469C28.7032 16.6289 28.7488 16.74 28.7488 16.8559C28.7488 16.9718 28.7032 17.083 28.6221 17.1649C28.541 17.2469 28.431 17.2929 28.3163 17.2929Z" fill="#313131"/>
<path d="M4.31632 17.2929H3.43243C3.31774 17.2929 3.20775 17.2469 3.12666 17.1649C3.04556 17.083 3 16.9718 3 16.8559C3 16.74 3.04556 16.6289 3.12666 16.5469C3.20775 16.465 3.31774 16.4189 3.43243 16.4189H4.31632C4.43101 16.4189 4.541 16.465 4.6221 16.5469C4.70319 16.6289 4.74875 16.74 4.74875 16.8559C4.74875 16.9718 4.70319 17.083 4.6221 17.1649C4.541 17.2469 4.43101 17.2929 4.31632 17.2929Z" fill="#313131"/>
<path d="M25.0516 24.4189C24.9369 24.4189 24.8269 24.3729 24.7458 24.2909L24.1214 23.6595C24.0426 23.5771 23.999 23.4667 24 23.3521C24.001 23.2375 24.0465 23.1279 24.1267 23.0469C24.2068 22.9659 24.3153 22.92 24.4287 22.919C24.5421 22.918 24.6513 22.962 24.7329 23.0416L25.3573 23.673C25.4178 23.7341 25.4589 23.812 25.4756 23.8967C25.4923 23.9815 25.4837 24.0693 25.451 24.1492C25.4183 24.229 25.3629 24.2972 25.2918 24.3453C25.2207 24.3933 25.1371 24.4189 25.0516 24.4189Z" fill="#313131"/>
<path d="M8.06218 10.2827C7.9475 10.2827 7.83752 10.2366 7.75645 10.1547L7.13202 9.52325C7.09071 9.48294 7.05777 9.43472 7.03511 9.38141C7.01244 9.3281 7.00052 9.27076 7.00002 9.21274C6.99952 9.15472 7.01046 9.09718 7.0322 9.04348C7.05394 8.98978 7.08605 8.94099 7.12666 8.89996C7.16726 8.85893 7.21554 8.82648 7.26868 8.80451C7.32183 8.78254 7.37877 8.77148 7.43619 8.77199C7.49361 8.77249 7.55035 8.78455 7.60311 8.80745C7.65587 8.83035 7.70358 8.86364 7.74347 8.90537L8.36791 9.5368C8.42836 9.59791 8.46953 9.67576 8.48621 9.76051C8.50289 9.84526 8.49433 9.93311 8.4616 10.0129C8.42888 10.0928 8.37347 10.161 8.30237 10.209C8.23128 10.257 8.14769 10.2827 8.06218 10.2827Z" fill="#313131"/>
<path d="M13.6582 18.1667C13.5567 18.1668 13.4584 18.1307 13.3806 18.0649C13.3027 17.9991 13.2502 17.9077 13.2324 17.8068C13.2145 17.7058 13.2323 17.6017 13.2827 17.5127C13.3331 17.4237 13.4129 17.3554 13.5081 17.3199L15.5682 16.5499V10.7382C15.5682 10.6223 15.6138 10.5112 15.6949 10.4293C15.776 10.3473 15.886 10.3013 16.0007 10.3013C16.1153 10.3013 16.2253 10.3473 16.3064 10.4293C16.3875 10.5112 16.4331 10.6223 16.4331 10.7382V16.8558C16.4331 16.9451 16.406 17.0323 16.3556 17.1055C16.3051 17.1788 16.2336 17.2347 16.1507 17.2657L13.8082 18.1396C13.7602 18.1575 13.7094 18.1667 13.6582 18.1667Z" fill="#313131"/>
</g>
<defs>
<clipPath id="clip0_1_3809">
<rect width="32" height="32.3358" fill="white" transform="translate(0 0.687988)"/>
</clipPath>
</defs>
</svg>
