<svg width="111" height="46" viewBox="0 0 111 46" fill="none" xmlns="http://www.w3.org/2000/svg">
<path d="M28.2044 19.1082C31.0957 19.1082 33.448 16.7559 33.448 13.8647C33.448 10.9734 31.0958 8.62109 28.2044 8.62109C25.313 8.62109 22.9609 10.9733 22.9609 13.8647C22.9609 16.7561 25.313 19.1082 28.2044 19.1082ZM28.2044 11.0404C29.7617 11.0404 31.0286 12.3073 31.0286 13.8647C31.0286 15.4219 29.7617 16.6888 28.2044 16.6888C26.6472 16.6888 25.3803 15.4219 25.3803 13.8647C25.3803 12.3075 26.6472 11.0404 28.2044 11.0404Z" fill="#275553"/>
<path d="M22.5 1C10.0934 1 0 11.0934 0 23.5C0 35.9066 10.0934 46 22.5 46C34.9066 46 45 35.9066 45 23.5C45 11.0934 34.9066 1 22.5 1ZM22.5 3.41936C33.5725 3.41936 42.5807 12.4275 42.5807 23.5C42.5807 24.5042 42.5056 25.491 42.3625 26.4561C41.4589 26.1825 40.6095 25.7441 39.8451 25.149C39.408 24.8088 38.7956 24.8086 38.3585 25.1492C36.9789 26.2238 35.3225 26.792 33.5681 26.792C31.8142 26.792 30.1575 26.2242 28.7773 25.1499C28.3403 24.8097 27.7282 24.8097 27.2913 25.1499C25.9111 26.2242 24.2545 26.792 22.5005 26.792C20.7461 26.792 19.089 26.2238 17.7086 25.149C17.2714 24.8088 16.6591 24.8086 16.222 25.1492C14.8424 26.2238 13.186 26.792 11.4317 26.792C9.67718 26.792 8.02016 26.2238 6.6398 25.149C6.20274 24.8088 5.59028 24.8086 5.15323 25.1492C4.38944 25.7441 3.54048 26.1825 2.63734 26.456C2.49435 25.491 2.41936 24.5042 2.41936 23.5C2.41936 12.4275 11.4275 3.41936 22.5 3.41936ZM37.015 37.3622C35.9527 37.8875 34.784 38.1609 33.5682 38.1609C31.8143 38.1609 30.1577 37.5931 28.7774 36.5188C28.3404 36.1786 27.7283 36.1786 27.2914 36.5188C25.9112 37.5931 24.2545 38.1609 22.5006 38.1609C20.7462 38.1609 19.0892 37.5927 17.7087 36.5178C17.2715 36.1774 16.6592 36.1775 16.2221 36.5179C14.8425 37.5927 13.186 38.1608 11.4318 38.1608C10.2165 38.1608 9.04803 37.8877 7.98569 37.3628C6.9219 36.2495 5.98561 35.0138 5.19798 33.6803C5.43508 33.5527 5.66903 33.418 5.89682 33.2706C7.54464 34.3364 9.44044 34.8955 11.4318 34.8955C13.4229 34.8955 15.3185 34.3363 16.9657 33.2706C18.6136 34.3364 20.5094 34.8955 22.5006 34.8955C24.4915 34.8955 26.3868 34.3368 28.0344 33.2713C29.682 34.3368 31.5774 34.8955 33.5682 34.8955C35.5593 34.8955 37.4549 34.3363 39.1022 33.2706C39.3304 33.4181 39.5646 33.5529 39.8019 33.6805C39.0144 35.014 38.0785 36.2492 37.015 37.3622ZM39.8452 30.8334C39.4081 30.4931 38.7957 30.4931 38.3586 30.8335C36.979 31.9082 35.3226 32.4764 33.5682 32.4764C31.8143 32.4764 30.1576 31.9086 28.7774 30.8343C28.3404 30.4941 27.7283 30.4941 27.2914 30.8343C25.9112 31.9086 24.2546 32.4764 22.5006 32.4764C20.7462 32.4764 19.0891 31.9082 17.7087 30.8334C17.2715 30.4931 16.6592 30.4931 16.2221 30.8335C14.8425 31.9082 13.1861 32.4764 11.4318 32.4764C9.6773 32.4764 8.02028 31.9082 6.63992 30.8334C6.20298 30.4931 5.5904 30.4931 5.15335 30.8335C4.81669 31.0958 4.46323 31.3273 4.09597 31.528C3.71516 30.6585 3.39423 29.7571 3.13839 28.8289C4.11061 28.5565 5.03794 28.1419 5.89682 27.5863C7.54464 28.6521 9.44044 29.2113 11.4318 29.2113C13.4229 29.2113 15.3185 28.652 16.9657 27.5863C18.6136 28.6521 20.5094 29.2113 22.5006 29.2113C24.4915 29.2113 26.3868 28.6525 28.0344 27.587C29.682 28.6525 31.5774 29.2113 33.5682 29.2113C35.5593 29.2113 37.455 28.652 39.1022 27.5863C39.9615 28.142 40.889 28.5566 41.8616 28.829C41.6058 29.7573 41.2848 30.6588 40.9039 31.5284C40.5362 31.3276 40.1823 31.0959 39.8452 30.8334ZM11.9315 40.567C13.7395 40.4812 15.457 39.9315 16.9657 38.9552C18.6136 40.0212 20.5095 40.5803 22.5006 40.5803C24.4914 40.5803 26.3867 40.0215 28.0344 38.9561C29.5435 39.9319 31.2607 40.4812 33.0685 40.567C29.9967 42.4761 26.3752 43.5807 22.5 43.5807C18.6248 43.5807 15.0033 42.4761 11.9315 40.567Z" fill="#275553"/>
<path d="M57.358 4.45455L61.6761 16.6989H61.8466L66.1648 4.45455H68.0114L62.6705 19H60.8523L55.5114 4.45455H57.358ZM70.277 19V4.45455H72.0384V17.4375H78.7997V19H70.277ZM83.0415 19H81.195L86.5359 4.45455H88.354L93.695 19H91.8484L87.5018 6.75568H87.3881L83.0415 19ZM83.7234 13.3182H91.1665V14.8807H83.7234V13.3182ZM100.449 19H95.9606V4.45455H100.648C102.059 4.45455 103.266 4.74574 104.27 5.32812C105.274 5.90578 106.043 6.73674 106.578 7.82102C107.114 8.90057 107.381 10.1932 107.381 11.6989C107.381 13.214 107.111 14.5185 106.571 15.6122C106.032 16.7012 105.246 17.5393 104.213 18.1264C103.181 18.7088 101.926 19 100.449 19ZM97.7219 17.4375H100.336C101.538 17.4375 102.535 17.2055 103.326 16.7415C104.116 16.2775 104.706 15.617 105.094 14.7599C105.482 13.9029 105.676 12.8826 105.676 11.6989C105.676 10.5246 105.485 9.51373 105.101 8.66619C104.718 7.81392 104.145 7.16051 103.382 6.70597C102.62 6.24669 101.671 6.01705 100.534 6.01705H97.7219V17.4375ZM55.9659 29.017V27.4545H66.875V29.017H62.3011V42H60.5398V29.017H55.9659ZM81.2607 34.7273C81.2607 36.2614 80.9837 37.5871 80.4297 38.7045C79.8757 39.822 79.1158 40.6837 78.1499 41.2898C77.1839 41.8958 76.0807 42.1989 74.8402 42.1989C73.5997 42.1989 72.4964 41.8958 71.5305 41.2898C70.5646 40.6837 69.8047 39.822 69.2507 38.7045C68.6967 37.5871 68.4197 36.2614 68.4197 34.7273C68.4197 33.1932 68.6967 31.8674 69.2507 30.75C69.8047 29.6326 70.5646 28.7708 71.5305 28.1648C72.4964 27.5587 73.5997 27.2557 74.8402 27.2557C76.0807 27.2557 77.1839 27.5587 78.1499 28.1648C79.1158 28.7708 79.8757 29.6326 80.4297 30.75C80.9837 31.8674 81.2607 33.1932 81.2607 34.7273ZM79.5561 34.7273C79.5561 33.4678 79.3454 32.4048 78.924 31.5384C78.5073 30.6719 77.9415 30.0161 77.2266 29.571C76.5163 29.1259 75.7209 28.9034 74.8402 28.9034C73.9595 28.9034 73.1617 29.1259 72.4467 29.571C71.7365 30.0161 71.1707 30.6719 70.7493 31.5384C70.3326 32.4048 70.1243 33.4678 70.1243 34.7273C70.1243 35.9867 70.3326 37.0497 70.7493 37.9162C71.1707 38.7827 71.7365 39.4384 72.4467 39.8835C73.1617 40.3286 73.9595 40.5511 74.8402 40.5511C75.7209 40.5511 76.5163 40.3286 77.2266 39.8835C77.9415 39.4384 78.5073 38.7827 78.924 37.9162C79.3454 37.0497 79.5561 35.9867 79.5561 34.7273ZM93.7678 27.4545H95.5291V37.0852C95.5291 38.0795 95.2947 38.9673 94.826 39.7486C94.362 40.5251 93.7062 41.1383 92.8587 41.5881C92.0111 42.0331 91.0168 42.2557 89.8757 42.2557C88.7346 42.2557 87.7403 42.0331 86.8928 41.5881C86.0452 41.1383 85.3871 40.5251 84.9183 39.7486C84.4543 38.9673 84.2223 38.0795 84.2223 37.0852V27.4545H85.9837V36.9432C85.9837 37.6534 86.1399 38.2855 86.4524 38.8395C86.7649 39.3887 87.21 39.822 87.7876 40.1392C88.37 40.4517 89.0661 40.608 89.8757 40.608C90.6854 40.608 91.3814 40.4517 91.9638 40.1392C92.5462 39.822 92.9912 39.3887 93.299 38.8395C93.6115 38.2855 93.7678 37.6534 93.7678 36.9432V27.4545ZM99.0465 42V27.4545H103.961C105.098 27.4545 106.03 27.6487 106.76 28.0369C107.489 28.4205 108.029 28.9484 108.379 29.6207C108.729 30.2931 108.904 31.0578 108.904 31.9148C108.904 32.7718 108.729 33.5317 108.379 34.1946C108.029 34.8575 107.491 35.3783 106.767 35.7571C106.042 36.1312 105.117 36.3182 103.99 36.3182H100.012V34.7273H103.933C104.709 34.7273 105.334 34.6136 105.808 34.3864C106.286 34.1591 106.632 33.8371 106.845 33.4205C107.063 32.9991 107.172 32.4972 107.172 31.9148C107.172 31.3324 107.063 30.8234 106.845 30.3878C106.627 29.9522 106.279 29.616 105.801 29.3793C105.323 29.1378 104.69 29.017 103.904 29.017H100.808V42H99.0465ZM105.893 35.4659L109.473 42H107.427L103.904 35.4659H105.893Z" fill="#275553"/>
</svg>
