<svg width="38" height="38" viewBox="0 0 38 38" fill="none" xmlns="http://www.w3.org/2000/svg">
<rect x="-0.5" y="0.5" width="37" height="37" rx="18.5" transform="matrix(-1 0 0 1 37 0)" stroke="#212121"/>
<g clip-path="url(#clip0_745_30)">
<path d="M25.9271 19.634C25.9269 19.6342 25.9268 19.6344 25.9266 19.6345L22.9362 22.6105C22.7122 22.8334 22.3499 22.8326 22.1269 22.6085C21.9039 22.3845 21.9048 22.0221 22.1288 21.7992L24.1365 19.8012L12.0166 19.8012C11.7006 19.8012 11.4443 19.545 11.4443 19.2289C11.4443 18.9128 11.7006 18.6566 12.0166 18.6566L24.1365 18.6566L22.1288 16.6586C21.9048 16.4357 21.904 16.0733 22.1269 15.8493C22.3499 15.6252 22.7123 15.6245 22.9363 15.8474L25.9266 18.8233C25.9268 18.8234 25.9269 18.8236 25.9271 18.8238C26.1513 19.0475 26.1505 19.411 25.9271 19.634Z" fill="#212121"/>
</g>
<defs>
<clipPath id="clip0_745_30">
<rect width="14.6506" height="14.6506" fill="white" transform="matrix(1 8.74228e-08 8.74228e-08 -1 11.4443 26.5542)"/>
</clipPath>
</defs>
</svg>
