<svg width="40" height="40" viewBox="0 0 40 40" fill="none" xmlns="http://www.w3.org/2000/svg">
<rect x="0.510453" y="-0.489324" width="37" height="37" rx="18.5" transform="matrix(0.999777 0.0211292 0.0211292 -0.999777 0.613969 37.6047)" stroke="#212121"/>
<g clip-path="url(#clip0_1_3698)">
<path d="M13.0879 19.2194C13.088 19.2193 13.0882 19.2191 13.0884 19.2189L16.1409 16.3069C16.3696 16.0887 16.7319 16.0972 16.9501 16.3259C17.1682 16.5546 17.1597 16.9168 16.931 17.135L14.8816 19.0901L26.9987 19.3462C27.3148 19.3529 27.5655 19.6145 27.5588 19.9305C27.5521 20.2465 27.2906 20.4972 26.9746 20.4905L14.8574 20.2344L16.8224 22.2744C17.0417 22.502 17.0349 22.8643 16.8072 23.0836C16.5795 23.3029 16.2172 23.296 15.998 23.0684L13.0712 20.03C13.071 20.0298 13.0709 20.0296 13.0707 20.0294C12.8514 19.8011 12.8597 19.4376 13.0879 19.2194Z" fill="#212121"/>
</g>
<defs>
<clipPath id="clip0_1_3698">
<rect width="14.6506" height="14.6506" fill="white" transform="matrix(-0.999777 -0.0211293 -0.0211293 0.999777 27.7139 12.6069)"/>
</clipPath>
</defs>
</svg>
